:version 1.10
:name ASF
:units
  mass 1
  length 1
  angle deg
:documentation
  ASF file generated by Kaydara
:root
  axis xyz
  order  tx ty tz rx ry rz
  position 0 0 0
  orientation 0 0 0
:bonedata
  begin
    id 1
    name LeftUpLegDummy
    direction 1 -2.30186e-007 -8.31532e-007
    length 2.93387
    axis 0 0 0 xyz
  end
  begin
    id 2
    name LeftUpLeg
    direction -1.82929e-007 -1 -1.48925e-009
    length 17.3336
    axis -3.48766 0.00143442 -0.000521554 xyz
    dof rx ry rz
  end
  begin
    id 3
    name LeftLeg
    direction -1.82929e-007 -1 -5.23717e-011
    length 14.9995
    axis 3.68178 -0.00654042 -0.000282425 xyz
    dof rx ry rz
  end
  begin
    id 4
    name LeftFoot
    direction 8.31532e-007 -4.54534e-011 1
    length 6.74421
    axis 1.87234e-006 4.66016e-005 -5.96866e-006 xyz
    dof rx ry rz
  end
  begin
    id 5
    name LeftToes
    direction 0.00818058 -0.00485161 0.999955
    length 3.85048
    axis 1.06247e-005 4.65869e-005 -5.96999e-006 xyz
    dof rx ry rz
  end
  begin
    id 6
    name SpineDummy
    direction -5.8607e-008 0.943407 -0.331637
    length 5.93572
    axis 0 0 0 xyz
  end
  begin
    id 7
    name Spine
    direction -1.04988e-007 0.999988 0.00495137
    length 10.1015
    axis -0.001389 0.000121417 6.61666e-006 xyz
    dof rx ry rz
  end
  begin
    id 8
    name Spine1
    direction 0 0 0
    length 0
    axis -0.001389 0.00012144 6.56766e-006 xyz
    dof rx ry rz
  end
  begin
    id 9
    name RightShoulderDummy
    direction -0.98348 0.17941 -0.0240696
    length 3.59882
    axis -0.001389 0.00012144 6.56766e-006 xyz
  end
  begin
    id 10
    name RightShoulder
    direction -0.978693 0.204882 0.0135597
    length 2.70001
    axis 0.215806 0.000203631 -0.00679732 xyz
    dof rx ry rz
  end
  begin
    id 11
    name RightArm
    direction -1 3.85509e-006 8.31394e-007
    length 10.2459
    axis -23.2009 -0.134239 -0.964098 xyz
    dof rx ry rz
  end
  begin
    id 12
    name RightForeArm
    direction -1 3.85569e-006 8.3129e-007
    length 8.16799
    axis -9.92322 0.0658061 0.17887 xyz
    dof rx ry rz
  end
  begin
    id 13
    name RightHand
    direction -0.992843 -0.0414604 0.112003
    length 5.28593
    axis -0.00960638 0.00330669 -0.185225 xyz
    dof rx ry rz
  end
  begin
    id 14
    name LeftShoulder1Dummy
    direction 0.983523 0.179172 -0.0240748
    length 3.59866
    axis -0.001389 0.00012144 6.56766e-006 xyz
  end
  begin
    id 15
    name LeftShoulder1
    direction 0.978627 0.205195 0.0135605
    length 2.70019
    axis -0.001389 0.00012144 6.57583e-006 xyz
    dof rx ry rz
  end
  begin
    id 16
    name LeftArm
    direction 1 3.51895e-006 -8.60188e-007
    length 10.2459
    axis -23.1894 0.134785 0.967513 xyz
    dof rx ry rz
  end
  begin
    id 17
    name LeftForeArm
    direction 1 3.51921e-006 -7.32029e-007
    length 8.16799
    axis -9.91835 -0.0656957 -0.177789 xyz
    dof rx ry rz
  end
  begin
    id 18
    name LeftHand
    direction 0.992938 -0.0411636 0.11126
    length 5.32135
    axis -0.00960237 -0.00340661 0.185177 xyz
    dof rx ry rz
  end
  begin
    id 19
    name HEadDummy
    direction 1.01974e-006 0.999861 -0.016675
    length 2.99946
    axis -0.001389 0.00012144 6.56766e-006 xyz
  end
  begin
    id 20
    name HEad
    direction -0.0222689 0.980941 0.193023
    length 5.12695
    axis -0.001389 0.00012144 6.56766e-006 xyz
    dof rx ry rz
  end
  begin
    id 21
    name RightUpLegDummy
    direction -1 2.30186e-007 8.31532e-007
    length 2.93387
    axis 0 0 0 xyz
  end
  begin
    id 22
    name RightUpLeg
    direction -1.82966e-007 -1 1.56832e-007
    length 17.3336
    axis -3.4909 -0.000906625 0.00028951 xyz
    dof rx ry rz
  end
  begin
    id 23
    name RightLeg
    direction -1.82786e-007 -1 -1.80317e-007
    length 14.9995
    axis 3.68513 0.0193739 -0.131021 xyz
    dof rx ry rz
  end
  begin
    id 24
    name RightFoot
    direction 8.31721e-007 -4.63324e-011 1
    length 6.74421
    axis 4.81691e-005 -0.120479 -0.188785 xyz
    dof rx ry rz
  end
  begin
    id 25
    name RightToes
    direction 0.00124746 -0.014064 0.9999
    length 3.85082
    axis 0.000481921 0.542163 -0.142575 xyz
    dof rx ry rz
  end
:hierarchy
  begin
    root LeftUpLegDummy SpineDummy RightUpLegDummy
    LeftUpLegDummy LeftUpLeg
    LeftUpLeg LeftLeg
    LeftLeg LeftFoot
    LeftFoot LeftToes
    SpineDummy Spine
    Spine Spine1
    Spine1 RightShoulderDummy LeftShoulder1Dummy HEadDummy
    RightShoulderDummy RightShoulder
    RightShoulder RightArm
    RightArm RightForeArm
    RightForeArm RightHand
    LeftShoulder1Dummy LeftShoulder1
    LeftShoulder1 LeftArm
    LeftArm LeftForeArm
    LeftForeArm LeftHand
    HEadDummy HEad
    RightUpLegDummy RightUpLeg
    RightUpLeg RightLeg
    RightLeg RightFoot
    RightFoot RightToes
  end

:SAMPLES-PER-SECOND 30
:FULLY-SPECIFIED
:DEGREES
31
root  -4.11434 33.8614 -9.4436 6.50601 79.8344 1.81343
LeftUpLeg  -5.57876 8.62126 -2.37239
LeftLeg  15.6496 4.92956 1.04169
LeftFoot  -7.7862 -0.0454583 -0.658356
LeftToes  -8.72315 7.65994e-007 1.12379e-007
Spine  2.12592 0.0921922 -0.958263
Spine1  4.09275 -0.00443704 -1.59833
RightShoulder  0.0247411 5.22606 7.34285
RightArm  -28.8816 -18.7495 74.4914
RightForeArm  31.5056 19.2223 3.51735
RightHand  0.990112 -12.9635 -8.32414
LeftShoulder1  0.0437837 0.925688 -10.511
LeftArm  -11.1924 13.248 -65.7221
LeftForeArm  29.5693 -15.4055 -2.7787
LeftHand  0.148182 4.38686 3.53945
HEad  15.4017 -17.2675 0.516285
RightUpLeg  -16.6118 -7.80697 -3.25222
RightLeg  12.435 9.4392 1.44889
RightFoot  7.6279 -0.0576343 1.27658
RightToes  -32.8018 -0.163047 -0.269734
32
root  -4.0888 33.8695 -9.42571 6.43407 79.8401 1.70468
LeftUpLeg  -5.50663 8.56028 -2.33315
LeftLeg  15.5217 4.98974 1.0428
LeftFoot  -7.72275 -0.046574 -0.661059
LeftToes  -8.78144 7.65994e-007 1.12379e-007
Spine  2.14046 0.0654937 -0.932218
Spine1  4.12484 -0.0562375 -1.5493
RightShoulder  0.0241465 5.29185 7.23359
RightArm  -28.8569 -18.8101 74.6257
RightForeArm  31.5009 19.2927 3.53128
RightHand  0.983281 -12.9824 -8.25173
LeftShoulder1  0.0437837 0.789563 -10.3451
LeftArm  -11.2532 13.2013 -65.7593
LeftForeArm  29.348 -15.4763 -2.79223
LeftHand  0.147584 4.41534 3.49647
HEad  15.4736 -17.2897 0.411658
RightUpLeg  -16.5578 -7.8631 -3.20445
RightLeg  12.3563 9.49092 1.44349
RightFoot  7.6068 -0.0578278 1.27958
RightToes  -32.7136 -0.163047 -0.269361
33
root  -4.06368 33.8796 -9.40428 6.24494 79.8949 1.48353
LeftUpLeg  -5.44388 8.50339 -2.26256
LeftLeg  15.4183 5.00701 1.037
LeftFoot  -7.67677 -0.0476667 -0.661905
LeftToes  -8.74067 7.65994e-007 1.12379e-007
Spine  2.17064 0.035921 -0.894275
Spine1  4.18745 -0.114429 -1.47722
RightShoulder  0.023548 5.31223 7.10148
RightArm  -28.8481 -18.7814 74.7143
RightForeArm  31.5297 19.3978 3.5521
RightHand  0.979614 -13.0066 -8.20367
LeftShoulder1  0.0437837 0.56622 -10.135
LeftArm  -11.2563 13.1124 -65.8759
LeftForeArm  29.1024 -15.5695 -2.81002
LeftHand  0.147442 4.39546 3.44514
HEad  15.4705 -17.3465 0.338462
RightUpLeg  -16.4864 -7.88809 -3.13911
RightLeg  12.276 9.46267 1.42574
RightFoot  7.58775 -0.0573114 1.27157
RightToes  -32.5747 -0.162046 -0.268951
34
root  -4.03973 33.8865 -9.38492 6.15329 79.9164 1.36965
LeftUpLeg  -5.38583 8.45477 -2.21781
LeftLeg  15.3429 5.05536 1.04009
LeftFoot  -7.62507 -0.0486717 -0.663162
LeftToes  -8.85285 7.65994e-007 1.12379e-007
Spine  2.19296 0.000811772 -0.86346
Spine1  4.23404 -0.183254 -1.42174
RightShoulder  0.0229681 5.34931 7.03327
RightArm  -28.8055 -18.691 74.6861
RightForeArm  31.5246 19.4989 3.57218
RightHand  0.977301 -12.9837 -8.1733
LeftShoulder1  0.0437837 0.402231 -9.99474
LeftArm  -11.1294 13.0061 -65.961
LeftForeArm  28.9971 -15.7443 -2.84327
LeftHand  0.146971 4.45801 3.44072
HEad  15.4061 -17.3492 0.326605
RightUpLeg  -16.4188 -7.8406 -3.10523
RightLeg  12.1987 9.39713 1.40308
RightFoot  7.58368 -0.0566059 1.26062
RightToes  -32.615 -0.161243 -0.268507
35
root  -4.01453 33.8924 -9.36153 5.98631 79.9625 1.17787
LeftUpLeg  -5.37095 8.41252 -2.1491
LeftLeg  15.3622 5.06776 1.04441
LeftFoot  -7.62462 -0.0495947 -0.666004
LeftToes  -8.84693 7.65994e-007 1.12379e-007
Spine  2.22041 -0.0436767 -0.822042
Spine1  4.28912 -0.272921 -1.34384
RightShoulder  0.0223889 5.37323 6.96307
RightArm  -28.7165 -18.5375 74.584
RightForeArm  31.4963 19.6312 3.59849
RightHand  0.975904 -12.9601 -8.20611
LeftShoulder1  0.0437837 0.282173 -9.87784
LeftArm  -10.9391 12.8412 -66.0629
LeftForeArm  28.6955 -15.9503 -2.88261
LeftHand  0.146542 4.48815 3.40964
HEad  15.364 -17.2639 0.255585
RightUpLeg  -16.3455 -7.85387 -3.04386
RightLeg  12.1228 9.36867 1.38624
RightFoot  7.55471 -0.0559642 1.25066
RightToes  -32.604 -0.1605 -0.26803
36
root  -3.98865 33.8982 -9.33722 5.88084 79.9299 1.05064
LeftUpLeg  -5.33979 8.38118 -2.0987
LeftLeg  15.3661 5.13644 1.05891
LeftFoot  -7.63006 -0.0500993 -0.67692
LeftToes  -8.81239 7.65994e-007 1.12379e-007
Spine  2.23162 -0.0674346 -0.783997
Spine1  4.31146 -0.321297 -1.27216
RightShoulder  0.0218222 5.39007 6.914
RightArm  -28.6179 -18.3469 74.4012
RightForeArm  31.424 19.7584 3.62387
RightHand  0.971109 -12.961 -8.17576
LeftShoulder1  0.0437837 0.205742 -9.78973
LeftArm  -10.8819 12.6682 -66.2032
LeftForeArm  28.4176 -16.1282 -2.91665
LeftHand  0.146457 4.51748 3.40509
HEad  15.3872 -17.1532 0.165218
RightUpLeg  -16.29 -7.85276 -2.98855
RightLeg  12.072 9.39886 1.3822
RightFoot  7.5079 -0.0556519 1.24582
RightToes  -32.4601 -0.159808 -0.267522
37
root  -3.96064 33.9046 -9.31388 5.6906 79.8271 0.841749
LeftUpLeg  -5.29672 8.30433 -2.04825
LeftLeg  15.3734 5.32687 1.09882
LeftFoot  -7.62969 -0.0497555 -0.703856
LeftToes  -8.81286 7.65994e-007 1.12379e-007
Spine  2.25164 -0.0715106 -0.738839
Spine1  4.35163 -0.329734 -1.18684
RightShoulder  0.0212429 5.39453 6.82016
RightArm  -28.5027 -18.1035 74.2124
RightForeArm  31.3355 19.9199 3.65615
RightHand  0.966419 -12.9916 -8.18282
LeftShoulder1  0.0437837 0.151347 -9.70395
LeftArm  -10.8945 12.4574 -66.3921
LeftForeArm  28.1534 -16.2791 -2.94558
LeftHand  0.14665 4.53748 3.41367
HEad  15.4308 -17.0424 0.0573435
RightUpLeg  -16.2342 -7.82982 -2.91818
RightLeg  12.0117 9.49088 1.38548
RightFoot  7.48408 -0.0561122 1.25296
RightToes  -32.3743 -0.159154 -0.266986
38
root  -3.93048 33.9104 -9.28864 5.46956 79.7068 0.612173
LeftUpLeg  -5.24614 8.21251 -1.98928
LeftLeg  15.4047 5.54053 1.14597
LeftFoot  -7.65669 -0.0492965 -0.736681
LeftToes  -8.78393 7.65994e-007 1.12379e-007
Spine  2.2733 -0.0742934 -0.691554
Spine1  4.39537 -0.334536 -1.09879
RightShoulder  0.020666 5.41371 6.72796
RightArm  -28.3841 -17.8588 73.993
RightForeArm  31.2341 20.13 3.69823
RightHand  0.962332 -12.9831 -8.14945
LeftShoulder1  0.0437837 0.0747931 -9.6319
LeftArm  -10.8583 12.2848 -66.5589
LeftForeArm  27.9166 -16.4396 -2.97639
LeftHand  0.147042 4.52124 3.40396
HEad  15.481 -16.8958 -0.0824098
RightUpLeg  -16.1716 -7.84081 -2.83735
RightLeg  11.9679 9.62772 1.39779
RightFoot  7.44161 -0.0567633 1.26306
RightToes  -32.2468 -0.15853 -0.266422
39
root  -3.90917 33.9148 -9.25893 5.26908 79.6374 0.392986
LeftUpLeg  -5.23038 8.18984 -1.91697
LeftLeg  15.4433 5.64117 1.1707
LeftFoot  -7.67477 -0.0505403 -0.753483
LeftToes  -8.8331 7.65994e-007 1.12379e-007
Spine  2.29087 -0.101453 -0.646143
Spine1  4.43074 -0.388241 -1.01486
RightShoulder  0.0201113 5.40658 6.64177
RightArm  -28.1872 -17.5932 73.7767
RightForeArm  31.1422 20.3697 3.74635
RightHand  0.960152 -12.9731 -8.14242
LeftShoulder1  0.0437837 0.00288511 -9.58
LeftArm  -10.7362 12.1267 -66.6778
LeftForeArm  27.6736 -16.5911 -3.00551
LeftHand  0.147791 4.51451 3.43153
HEad  15.5319 -16.7027 -0.192555
RightUpLeg  -16.1148 -7.78184 -2.75647
RightLeg  11.9003 9.64151 1.38823
RightFoot  7.41425 -0.0568488 1.26439
RightToes  -32.1768 -0.157923 -0.265834
40
root  -3.87949 33.9201 -9.22632 5.04862 79.5189 0.147487
LeftUpLeg  -5.16601 8.19504 -1.83519
LeftLeg  15.4111 5.75158 1.1902
LeftFoot  -7.66519 -0.0517626 -0.768604
LeftToes  -8.9636 7.65994e-007 1.12379e-007
Spine  2.30793 -0.114035 -0.600508
Spine1  4.46535 -0.412165 -0.930517
RightShoulder  0.0195633 5.38946 6.53274
RightArm  -28.0313 -17.3496 73.5904
RightForeArm  30.9769 20.6683 3.80657
RightHand  0.958424 -12.9835 -8.12265
LeftShoulder1  0.0437837 -0.0532934 -9.5266
LeftArm  -10.5747 11.9832 -66.7956
LeftForeArm  27.4927 -16.7063 -3.0277
LeftHand  0.148478 4.47579 3.42463
HEad  15.5564 -16.5116 -0.223185
RightUpLeg  -16.0629 -7.71728 -2.6646
RightLeg  11.8499 9.69953 1.38785
RightFoot  7.3661 -0.0566769 1.26172
RightToes  -32.1262 -0.157324 -0.265224
41
root  -3.8527 33.9249 -9.19412 4.84919 79.3944 -0.0811691
LeftUpLeg  -5.12119 8.19444 -1.75685
LeftLeg  15.3988 5.88926 1.21731
LeftFoot  -7.65437 -0.0526728 -0.787198
LeftToes  -9.03076 7.65994e-007 1.12379e-007
Spine  2.3222 -0.129656 -0.557622
Spine1  4.49379 -0.442603 -0.850998
RightShoulder  0.0190531 5.34294 6.44893
RightArm  -27.8243 -17.1004 73.3979
RightForeArm  30.7884 20.9534 3.86431
RightHand  0.957762 -13.0295 -8.11009
LeftShoulder1  0.0437837 -0.116134 -9.48486
LeftArm  -10.4605 11.866 -66.8959
LeftForeArm  27.3511 -16.7779 -3.0415
LeftHand  0.149696 4.43548 3.4591
HEad  15.6359 -16.3395 -0.253845
RightUpLeg  -16.0257 -7.64278 -2.57726
RightLeg  11.8048 9.7647 1.38929
RightFoot  7.33425 -0.0564825 1.25871
RightToes  -32.0042 -0.156721 -0.264593
42
root  -3.8207 33.9302 -9.15084 4.79505 79.263 -0.174123
LeftUpLeg  -5.06932 8.25323 -1.68327
LeftLeg  15.3691 5.97149 1.23105
LeftFoot  -7.64738 -0.05424 -0.798491
LeftToes  -9.04499 7.65994e-007 1.12379e-007
Spine  2.33355 -0.152399 -0.528825
Spine1  4.51809 -0.485006 -0.801248
RightShoulder  0.0185528 5.3359 6.37556
RightArm  -27.6985 -16.9091 73.2506
RightForeArm  30.7077 21.3031 3.93536
RightHand  0.95889 -13.0235 -8.01197
LeftShoulder1  0.0437837 -0.166889 -9.42537
LeftArm  -10.4031 11.8109 -66.9677
LeftForeArm  27.1965 -16.8668 -3.05866
LeftHand  0.148484 4.51449 3.40903
HEad  15.7381 -16.1607 -0.292299
RightUpLeg  -15.9877 -7.61137 -2.487
RightLeg  11.7632 9.86074 1.39557
RightFoot  7.25676 -0.0562986 1.25901
RightToes  -31.8145 -0.156104 -0.263943
43
root  -3.79472 33.9357 -9.1064 4.48721 79.1243 -0.534617
LeftUpLeg  -5.03529 8.17833 -1.57239
LeftLeg  15.3476 6.18719 1.27299
LeftFoot  -7.6329 -0.0551653 -0.826958
LeftToes  -9.17557 7.65994e-007 1.12379e-007
Spine  2.35386 -0.175583 -0.475481
Spine1  4.559 -0.530165 -0.701246
RightShoulder  0.0180646 5.31533 6.26574
RightArm  -27.2177 -16.7858 73.083
RightForeArm  30.3564 21.8538 4.04809
RightHand  0.970853 -13.0911 -8.07213
LeftShoulder1  0.0437837 -0.202901 -9.36823
LeftArm  -10.3295 11.7344 -67.0641
LeftForeArm  27.1046 -16.8948 -3.06408
LeftHand  0.148967 4.48971 3.39933
HEad  15.7837 -15.9454 -0.399763
RightUpLeg  -15.9875 -7.59244 -2.33885
RightLeg  11.7537 9.9781 1.41034
RightFoot  7.21316 -0.0565037 1.26635
RightToes  -31.7127 -0.155463 -0.263276
44
root  -3.76474 33.9399 -9.05938 4.41102 78.9895 -0.650234
LeftUpLeg  -5.01855 8.09838 -1.5023
LeftLeg  15.3941 6.402 1.32245
LeftFoot  -7.62761 -0.0570918 -0.856431
LeftToes  -9.34336 7.65994e-007 1.12379e-007
Spine  2.38591 -0.189529 -0.452261
Spine1  4.62405 -0.555342 -0.660838
RightShoulder  0.0176309 5.25546 6.19168
RightArm  -26.9488 -16.7219 72.9986
RightForeArm  30.2342 22.5912 4.20025
RightHand  0.948711 -13.0777 -7.88875
LeftShoulder1  0.0437837 -0.289353 -9.30989
LeftArm  -10.2572 11.6888 -67.0778
LeftForeArm  27.0171 -16.946 -3.07395
LeftHand  0.149922 4.50238 3.46256
HEad  15.8763 -15.7452 -0.434264
RightUpLeg  -15.971 -7.60165 -2.22906
RightLeg  11.7442 10.112 1.42737
RightFoot  7.14141 -0.0564676 1.27088
RightToes  -31.6513 -0.154786 -0.262595
45
root  -3.73512 33.9423 -9.01005 4.24602 78.8499 -0.85538
LeftUpLeg  -5.00371 7.96657 -1.41565
LeftLeg  15.4566 6.68322 1.38791
LeftFoot  -7.68442 -0.0605992 -0.902302
LeftToes  -9.21436 7.65994e-007 1.12379e-007
Spine  2.42015 -0.202968 -0.425281
Spine1  4.69365 -0.579023 -0.613605
RightShoulder  0.0172454 5.16799 6.1427
RightArm  -26.3981 -16.7427 72.8855
RightForeArm  29.8303 23.6247 4.41654
RightHand  0.933184 -13.0669 -7.76079
LeftShoulder1  0.0437837 -0.332726 -9.28368
LeftArm  -10.2043 11.6227 -67.0602
LeftForeArm  27.0089 -16.9604 -3.07675
LeftHand  0.149434 4.49956 3.39692
HEad  15.9981 -15.5219 -0.472404
RightUpLeg  -15.9589 -7.49226 -2.11455
RightLeg  11.7546 10.1373 1.43278
RightFoot  7.04492 -0.0551877 1.25694
RightToes  -31.4831 -0.154063 -0.261901
